<svg width="27" height="28" viewBox="0 0 27 28" fill="none" xmlns="http://www.w3.org/2000/svg">
<path d="M0.567078 13.9034C0.567078 11.2757 1.15383 8.92872 2.32734 6.86232C3.52637 4.77041 5.14632 3.15045 7.18721 2.00245C9.25361 0.828942 11.5624 0.242188 14.1135 0.242188C17.0983 0.242188 19.7132 1.00752 21.9581 2.53819C24.2031 4.06885 25.7721 6.18628 26.6649 8.89045H20.504C19.8917 7.6149 19.0244 6.65823 17.9019 6.02045C16.8049 5.38267 15.5293 5.06379 14.0752 5.06379C12.519 5.06379 11.1287 5.4337 9.90414 6.17352C8.70512 6.88783 7.76121 7.90828 7.07241 9.23485C6.40912 10.5614 6.07748 12.1176 6.07748 13.9034C6.07748 15.6637 6.40912 17.2198 7.07241 18.5719C7.76121 19.8985 8.70512 20.9317 9.90414 21.6715C11.1287 22.3858 12.519 22.743 14.0752 22.743C15.5293 22.743 16.8049 22.4241 17.9019 21.7863C19.0244 21.123 19.8917 20.1536 20.504 18.8781H26.6649C25.7721 21.6077 24.2031 23.7379 21.9581 25.2686C19.7387 26.7737 17.1238 27.5263 14.1135 27.5263C11.5624 27.5263 9.25361 26.9523 7.18721 25.8043C5.14632 24.6308 3.52637 23.0109 2.32734 20.9445C1.15383 18.8781 0.567078 16.531 0.567078 13.9034Z" fill="white"/>
</svg>
