<svg width="20" height="28" viewBox="0 0 20 28" fill="none" xmlns="http://www.w3.org/2000/svg">
<path d="M19.4932 8.85935C19.4932 10.288 19.1488 11.6273 18.46 12.8773C17.7967 14.1274 16.738 15.1351 15.2839 15.9004C13.8553 16.6658 12.044 17.0484 9.85004 17.0484H5.37284V27.3039H0.0155029V0.59375H9.85004C11.9164 0.59375 13.6767 0.950905 15.1308 1.66522C16.585 2.37953 17.6692 3.3617 18.3835 4.61175C19.1233 5.86179 19.4932 7.27766 19.4932 8.85935ZM9.62044 12.7243C11.1001 12.7243 12.1971 12.3926 12.9114 11.7294C13.6257 11.0406 13.9828 10.0839 13.9828 8.85935C13.9828 6.25721 12.5287 4.95615 9.62044 4.95615H5.37284V12.7243H9.62044Z" fill="white"/>
</svg>
