<svg width="21" height="28" viewBox="0 0 21 28" fill="none" xmlns="http://www.w3.org/2000/svg">
<path d="M14.4646 27.3039L8.57153 16.8953H6.04593V27.3039H0.688599V0.59375H10.7145C12.7809 0.59375 14.5411 0.96366 15.9953 1.70348C17.4494 2.41779 18.5336 3.39997 19.2479 4.65002C19.9877 5.87455 20.3577 7.25215 20.3577 8.78281C20.3577 10.5431 19.8474 12.1375 18.827 13.5661C17.8065 14.9693 16.2886 15.9387 14.2733 16.4744L20.6638 27.3039H14.4646ZM6.04593 12.8773H10.5231C11.9773 12.8773 13.0615 12.5329 13.7758 11.8441C14.4901 11.1298 14.8473 10.1477 14.8473 8.89762C14.8473 7.67308 14.4901 6.72917 13.7758 6.06588C13.0615 5.37708 11.9773 5.03268 10.5231 5.03268H6.04593V12.8773Z" fill="white"/>
</svg>
